<?xml version="1.0" encoding="UTF-8" standalone="no"?><!DOCTYPE svg PUBLIC "-//W3C//DTD SVG 1.1//EN" "http://www.w3.org/Graphics/SVG/1.1/DTD/svg11.dtd"><svg width="100%" height="100%" viewBox="0 0 1616 188" version="1.1" xmlns="http://www.w3.org/2000/svg" xmlns:xlink="http://www.w3.org/1999/xlink" xml:space="preserve" xmlns:serif="http://www.serif.com/" style="fill-rule:evenodd;clip-rule:evenodd;stroke-miterlimit:10;"><g><g><rect x="27.645" y="27.645" width="265.393" height="132.697" style="fill:#fff;"/><rect x="27.645" y="27.645" width="265.393" height="132.697" style="fill:none;stroke:#000;stroke-width:2.76px;"/><rect x="27.645" y="27.645" width="265.393" height="132.697" style="fill:#fff;"/><rect x="27.645" y="27.645" width="265.393" height="132.697" style="fill:none;stroke:#000;stroke-width:2.76px;"/><g><text x="113.279px" y="84.318px" style="font-family:'Lato-Bold', 'Lato', sans-serif;font-weight:700;font-size:38.703px;">clien<tspan x="193.607px " y="84.318px ">t</tspan></text><path d="M208.895,84.318l-97.106,0" style="fill:none;stroke:#000;stroke-width:2.76px;"/></g><rect x="483.79" y="27.645" width="456.769" height="132.697" style="fill:#fff;"/><rect x="483.79" y="27.645" width="456.769" height="132.697" style="fill:none;stroke:#000;stroke-width:2.76px;"/><rect x="483.79" y="27.645" width="456.769" height="132.697" style="fill:#fff;"/><rect x="483.79" y="27.645" width="456.769" height="132.697" style="fill:none;stroke:#000;stroke-width:2.76px;"/><g><text x="605.779px" y="84.318px" style="font-family:'Lato-Bold', 'Lato', sans-serif;font-weight:700;font-size:38.703px;">pr<tspan x="641.638px 662.982px " y="84.318px 84.318px ">ox</tspan>y: P<tspan x="746.62px 760.495px 781.84px " y="84.318px 84.318px 84.318px ">rox</tspan>y</text><path d="M822.275,84.318l-220.202,0" style="fill:none;stroke:#000;stroke-width:2.76px;"/></g><path d="M295.803,93.993l185.222,0" style="fill:none;stroke:#000;stroke-width:2.76px;"/><path d="M452.93,105.631l28.095,-11.638l-28.095,-11.637" style="fill:none;stroke:#000;stroke-width:2.76px;"/><rect x="1130.69" y="27.645" width="456.769" height="132.697" style="fill:#fff;"/><rect x="1130.69" y="27.645" width="456.769" height="132.697" style="fill:none;stroke:#000;stroke-width:2.76px;"/><rect x="1130.69" y="27.645" width="456.769" height="132.697" style="fill:#fff;"/><rect x="1130.69" y="27.645" width="456.769" height="132.697" style="fill:none;stroke:#000;stroke-width:2.76px;"/><g><text x="1188.66px" y="84.318px" style="font-family:'Lato-Bold', 'Lato', sans-serif;font-weight:700;font-size:38.703px;">subject: R<tspan x="1355.97px " y="84.318px ">e</tspan>alS<tspan x="1426.68px " y="84.318px ">u</tspan>bject</text><path d="M1533.77,84.318l-349.392,0" style="fill:none;stroke:#000;stroke-width:2.76px;"/></g><path d="M942.699,93.993l185.222,0" style="fill:none;stroke:#000;stroke-width:2.76px;"/><path d="M1099.83,105.631l28.095,-11.638l-28.095,-11.637" style="fill:none;stroke:#000;stroke-width:2.76px;"/></g></g></svg>