<svg version="1.1" xmlns="http://www.w3.org/2000/svg" xmlns:xlink="http://www.w3.org/1999/xlink" width="693" height="324"><defs/><g><g><rect fill="#ffffff" stroke="none" x="120" y="176" width="136" height="80" transform="matrix(1 0 0 1 -110 -166)"/></g><g><path fill="none" stroke="#000000" paint-order="fill stroke markers" d=" M 10 10 L 146 10 L 146 90 L 10 90 L 10 10 Z Z" stroke-miterlimit="10" stroke-dasharray=""/></g><g><path fill="none" stroke="#000000" paint-order="fill stroke markers" d=" M 10 36 L 146 36" stroke-miterlimit="10" stroke-dasharray=""/></g><g><path fill="none" stroke="#000000" paint-order="fill stroke markers" d=" M 10 46 L 146 46" stroke-miterlimit="10" stroke-dasharray=""/></g><g><g><path fill="none" stroke="none"/><text fill="#000000" stroke="none" font-family="Lato" font-size="14px" font-style="normal" font-weight="bold" text-decoration="undefined" x="188.5" y="190" text-anchor="middle" dominant-baseline="central" transform="matrix(1 0 0 1 -110 -166)">Button</text></g></g><g><g><path fill="none" stroke="none"/><text fill="#000000" stroke="none" font-family="Lato" font-size="14px" font-style="normal" font-weight="normal" text-decoration="undefined" x="125" y="224" text-anchor="start" dominant-baseline="central" transform="matrix(1 0 0 1 -110 -166)">+on_click()</text></g></g><g><rect fill="#ffffff" stroke="none" x="632" y="320" width="160" height="80" transform="matrix(1 0 0 1 -110 -166)"/></g><g><path fill="none" stroke="#000000" paint-order="fill stroke markers" d=" M 522 154 L 682 154 L 682 234 L 522 234 L 522 154 Z Z" stroke-miterlimit="10" stroke-dasharray=""/></g><g><path fill="none" stroke="#000000" paint-order="fill stroke markers" d=" M 522 180 L 682 180" stroke-miterlimit="10" stroke-dasharray=""/></g><g><path fill="none" stroke="#000000" paint-order="fill stroke markers" d=" M 522 190 L 682 190" stroke-miterlimit="10" stroke-dasharray=""/></g><g><g><path fill="none" stroke="none"/><text fill="#000000" stroke="none" font-family="Lato" font-size="14px" font-style="normal" font-weight="bold" text-decoration="undefined" x="712.5" y="334" text-anchor="middle" dominant-baseline="central" transform="matrix(1 0 0 1 -110 -166)">LEDLight</text></g></g><g><g><path fill="none" stroke="none"/><text fill="#000000" stroke="none" font-family="Lato" font-size="14px" font-style="normal" font-weight="normal" text-decoration="undefined" x="637" y="368" text-anchor="start" dominant-baseline="central" transform="matrix(1 0 0 1 -110 -166)">+set_rgb(r, g, b)</text></g></g><g><rect fill="#ffffff" stroke="none" x="384" y="176" width="144" height="80" transform="matrix(1 0 0 1 -110 -166)"/></g><g><path fill="none" stroke="#000000" paint-order="fill stroke markers" d=" M 274 10 L 418 10 L 418 90 L 274 90 L 274 10 Z Z" stroke-miterlimit="10" stroke-dasharray=""/></g><g><path fill="none" stroke="#000000" paint-order="fill stroke markers" d=" M 274 36 L 418 36" stroke-miterlimit="10" stroke-dasharray=""/></g><g><g><path fill="none" stroke="none"/><text fill="#000000" stroke="none" font-family="Lato" font-size="14px" font-style="italic" font-weight="bold" text-decoration="undefined" x="456.5" y="190" text-anchor="middle" dominant-baseline="central" transform="matrix(1 0 0 1 -110 -166)">ISwitch</text></g></g><g><g><path fill="none" stroke="none"/><text fill="#000000" stroke="none" font-family="Lato" font-size="14px" font-style="italic" font-weight="normal" text-decoration="undefined" x="389" y="214" text-anchor="start" dominant-baseline="central" transform="matrix(1 0 0 1 -110 -166)">+on()</text></g></g><g><g><path fill="none" stroke="none"/><text fill="#000000" stroke="none" font-family="Lato" font-size="14px" font-style="italic" font-weight="normal" text-decoration="undefined" x="389" y="230" text-anchor="start" dominant-baseline="central" transform="matrix(1 0 0 1 -110 -166)">+off()</text></g></g><g><path fill="none" stroke="#000000" paint-order="fill stroke markers" d=" M 147 50 L 273 50" stroke-miterlimit="10" stroke-dasharray=""/></g><g><path fill="none" stroke="#000000" paint-order="fill stroke markers" d=" M 262.83732514237585 54.209517756016 L 273 50 L 262.83732514237585 45.790482243984" stroke-miterlimit="10" stroke-dasharray=""/></g><g><rect fill="#ffffff" stroke="none" x="304" y="194" width="69.04794311523438" height="12" transform="matrix(1 0 0 1 -110 -166)"/></g><g><g><path fill="none" stroke="none"/><text fill="#000000" stroke="none" font-family="Lato" font-size="12px" font-style="normal" font-weight="normal" text-decoration="undefined" x="338.5239715576172" y="200" text-anchor="middle" dominant-baseline="central" transform="matrix(1 0 0 1 -110 -166)">-led_switch</text></g></g><g><rect fill="#ffffff" stroke="none" x="384" y="320" width="144" height="80" transform="matrix(1 0 0 1 -110 -166)"/></g><g><path fill="none" stroke="#000000" paint-order="fill stroke markers" d=" M 274 154 L 418 154 L 418 234 L 274 234 L 274 154 Z Z" stroke-miterlimit="10" stroke-dasharray=""/></g><g><path fill="none" stroke="#000000" paint-order="fill stroke markers" d=" M 274 180 L 418 180" stroke-miterlimit="10" stroke-dasharray=""/></g><g><g><path fill="none" stroke="none"/><text fill="#000000" stroke="none" font-family="Lato" font-size="14px" font-style="normal" font-weight="bold" text-decoration="undefined" x="456.5" y="334" text-anchor="middle" dominant-baseline="central" transform="matrix(1 0 0 1 -110 -166)">LEDSwitch</text></g></g><g><g><path fill="none" stroke="none"/><text fill="#000000" stroke="none" font-family="Lato" font-size="14px" font-style="normal" font-weight="normal" text-decoration="undefined" x="389" y="358" text-anchor="start" dominant-baseline="central" transform="matrix(1 0 0 1 -110 -166)">+on()</text></g></g><g><g><path fill="none" stroke="none"/><text fill="#000000" stroke="none" font-family="Lato" font-size="14px" font-style="normal" font-weight="normal" text-decoration="undefined" x="389" y="374" text-anchor="start" dominant-baseline="central" transform="matrix(1 0 0 1 -110 -166)">+off()</text></g></g><g><path fill="none" stroke="#000000" paint-order="fill stroke markers" d=" M 346 153 L 346 91" stroke-miterlimit="10" stroke-dasharray=""/></g><g><path fill="#FFFFFF" stroke="none" paint-order="stroke fill markers" d=" M 354.419035512032 111.32534971524831 L 346 91 L 337.580964487968 111.32534971524831"/></g><g><path fill="none" stroke="#000000" paint-order="fill stroke markers" d=" M 354.419035512032 111.32534971524831 L 346 91 L 337.580964487968 111.32534971524831 L 354.419035512032 111.32534971524831" stroke-miterlimit="10" stroke-dasharray=""/></g><g><path fill="none" stroke="#000000" paint-order="fill stroke markers" d=" M 419 194 L 521 194" stroke-miterlimit="10" stroke-dasharray=""/></g><g><path fill="none" stroke="#000000" paint-order="fill stroke markers" d=" M 510.8373251423759 198.209517756016 L 521 194 L 510.8373251423758 189.790482243984" stroke-miterlimit="10" stroke-dasharray=""/></g><g><rect fill="#ffffff" stroke="none" x="592" y="339" width="26.865982055664062" height="12" transform="matrix(1 0 0 1 -110 -166)"/></g><g><g><path fill="none" stroke="none"/><text fill="#000000" stroke="none" font-family="Lato" font-size="12px" font-style="normal" font-weight="normal" text-decoration="undefined" x="605.432991027832" y="345" text-anchor="middle" dominant-baseline="central" transform="matrix(1 0 0 1 -110 -166)">-led</text></g></g><g><rect fill="#FFFFD8" stroke="none" x="488" y="448" width="216" height="32" transform="matrix(1 0 0 1 -110 -166)"/></g><g><path fill="none" stroke="#000000" paint-order="fill stroke markers" d=" M 378 282 L 594 282 L 594 314 L 378 314 L 378 282 Z Z" stroke-miterlimit="10" stroke-dasharray=""/></g><g><g><path fill="none" stroke="none"/><text fill="#000000" stroke="none" font-family="&quot;Source Code Pro&quot;" font-size="12px" font-style="normal" font-weight="normal" text-decoration="undefined" x="596" y="457" text-anchor="middle" dominant-baseline="text-before-edge" transform="matrix(1 0 0 1 -110 -166)">led.set_rgb(255, 255, 255)</text></g></g><g><path fill="none" stroke="#000000" paint-order="fill stroke markers" d=" M 418 282 L 319 191" stroke-miterlimit="10" stroke-dasharray="6,4"/></g></g></svg>