<svg version="1.1" xmlns="http://www.w3.org/2000/svg" xmlns:xlink="http://www.w3.org/1999/xlink" width="477" height="195"><defs/><g><g><rect fill="#ffffff" stroke="none" x="200" y="224" width="184" height="80" transform="matrix(1 0 0 1 -190 -214)"/></g><g><path fill="none" stroke="#000000" paint-order="fill stroke markers" d=" M 10 10 L 194 10 L 194 90 L 10 90 L 10 10 Z Z" stroke-miterlimit="10" stroke-dasharray=""/></g><g><path fill="none" stroke="#000000" paint-order="fill stroke markers" d=" M 10 36 L 194 36" stroke-miterlimit="10" stroke-dasharray=""/></g><g><path fill="none" stroke="#000000" paint-order="fill stroke markers" d=" M 10 46 L 194 46" stroke-miterlimit="10" stroke-dasharray=""/></g><g><g><path fill="none" stroke="none"/><text fill="#000000" stroke="none" font-family="Lato" font-size="14px" font-style="normal" font-weight="bold" text-decoration="undefined" x="292.5" y="238" text-anchor="middle" dominant-baseline="central" transform="matrix(1 0 0 1 -190 -214)">Button</text></g></g><g><g><path fill="none" stroke="none"/><text fill="#000000" stroke="none" font-family="Lato" font-size="14px" font-style="normal" font-weight="normal" text-decoration="undefined" x="205" y="272" text-anchor="start" dominant-baseline="central" transform="matrix(1 0 0 1 -190 -214)">+on_click()</text></g></g><g><rect fill="#ffffff" stroke="none" x="496" y="224" width="160" height="80" transform="matrix(1 0 0 1 -190 -214)"/></g><g><path fill="none" stroke="#000000" paint-order="fill stroke markers" d=" M 306 10 L 466 10 L 466 90 L 306 90 L 306 10 Z Z" stroke-miterlimit="10" stroke-dasharray=""/></g><g><path fill="none" stroke="#000000" paint-order="fill stroke markers" d=" M 306 36 L 466 36" stroke-miterlimit="10" stroke-dasharray=""/></g><g><path fill="none" stroke="#000000" paint-order="fill stroke markers" d=" M 306 46 L 466 46" stroke-miterlimit="10" stroke-dasharray=""/></g><g><g><path fill="none" stroke="none"/><text fill="#000000" stroke="none" font-family="Lato" font-size="14px" font-style="normal" font-weight="bold" text-decoration="undefined" x="576.5" y="238" text-anchor="middle" dominant-baseline="central" transform="matrix(1 0 0 1 -190 -214)">LEDLight</text></g></g><g><g><path fill="none" stroke="none"/><text fill="#000000" stroke="none" font-family="Lato" font-size="14px" font-style="normal" font-weight="normal" text-decoration="undefined" x="501" y="272" text-anchor="start" dominant-baseline="central" transform="matrix(1 0 0 1 -190 -214)">+set_rgb(r, g, b)</text></g></g><g><path fill="none" stroke="#000000" paint-order="fill stroke markers" d=" M 195 50 L 305 50" stroke-miterlimit="10" stroke-dasharray=""/></g><g><path fill="none" stroke="#000000" paint-order="fill stroke markers" d=" M 294.83732514237585 54.209517756016 L 305 50 L 294.83732514237585 45.790482243984" stroke-miterlimit="10" stroke-dasharray=""/></g><g><rect fill="#ffffff" stroke="none" x="456" y="243" width="26.865982055664062" height="12" transform="matrix(1 0 0 1 -190 -214)"/></g><g><g><path fill="none" stroke="none"/><text fill="#000000" stroke="none" font-family="Lato" font-size="12px" font-style="normal" font-weight="normal" text-decoration="undefined" x="469.43299102783203" y="249" text-anchor="middle" dominant-baseline="central" transform="matrix(1 0 0 1 -190 -214)">-led</text></g></g><g><rect fill="#FFFFD8" stroke="none" x="320" y="344" width="232" height="32" transform="matrix(1 0 0 1 -190 -214)"/></g><g><path fill="none" stroke="#000000" paint-order="fill stroke markers" d=" M 130 130 L 362 130 L 362 162 L 130 162 L 130 130 Z Z" stroke-miterlimit="10" stroke-dasharray=""/></g><g><g><path fill="none" stroke="none"/><text fill="#000000" stroke="none" font-family="&quot;Source Code Pro&quot;" font-size="12px" font-style="normal" font-weight="normal" text-decoration="undefined" x="436" y="353" text-anchor="middle" dominant-baseline="text-before-edge" transform="matrix(1 0 0 1 -190 -214)">led.set_rgb(255, 255, 255)</text></g></g><g><path fill="none" stroke="#000000" paint-order="fill stroke markers" d=" M 170 130 L 90 58" stroke-miterlimit="10" stroke-dasharray="6,4"/></g></g></svg>