<svg version="1.1" xmlns="http://www.w3.org/2000/svg" xmlns:xlink="http://www.w3.org/1999/xlink" width="621" height="384"><defs/><g><g><rect fill="#ffffff" stroke="none" x="224" y="112" width="152" height="64" transform="matrix(1 0 0 1 -214 -102)"/></g><g><path fill="none" stroke="#000000" paint-order="fill stroke markers" d=" M 10 10 L 162 10 L 162 74 L 10 74 L 10 10 Z Z" stroke-miterlimit="10" stroke-dasharray=""/></g><g><path fill="none" stroke="#000000" paint-order="fill stroke markers" d=" M 10 36 L 162 36" stroke-miterlimit="10" stroke-dasharray=""/></g><g><path fill="none" stroke="#000000" paint-order="fill stroke markers" d=" M 10 46 L 162 46" stroke-miterlimit="10" stroke-dasharray=""/></g><g><g><path fill="none" stroke="none"/><text fill="#000000" stroke="none" font-family="Lato" font-size="14px" font-style="normal" font-weight="bold" text-decoration="undefined" x="300.5" y="126" text-anchor="middle" dominant-baseline="central" transform="matrix(1 0 0 1 -214 -102)">TimerUser</text></g></g><g><rect fill="#ffffff" stroke="none" x="464" y="112" width="144" height="64" transform="matrix(1 0 0 1 -214 -102)"/></g><g><path fill="none" stroke="#000000" paint-order="fill stroke markers" d=" M 250 10 L 394 10 L 394 74 L 250 74 L 250 10 Z Z" stroke-miterlimit="10" stroke-dasharray=""/></g><g><path fill="none" stroke="#000000" paint-order="fill stroke markers" d=" M 250 36 L 394 36" stroke-miterlimit="10" stroke-dasharray=""/></g><g><path fill="none" stroke="#000000" paint-order="fill stroke markers" d=" M 250 46 L 394 46" stroke-miterlimit="10" stroke-dasharray=""/></g><g><g><path fill="none" stroke="none"/><text fill="#000000" stroke="none" font-family="Lato" font-size="14px" font-style="italic" font-weight="bold" text-decoration="undefined" x="536.5" y="126" text-anchor="middle" dominant-baseline="central" transform="matrix(1 0 0 1 -214 -102)">Timer</text></g></g><g><g><path fill="none" stroke="none"/><text fill="#000000" stroke="none" font-family="Lato" font-size="14px" font-style="normal" font-weight="normal" text-decoration="undefined" x="469" y="160" text-anchor="start" dominant-baseline="central" transform="matrix(1 0 0 1 -214 -102)">+timeout()</text></g></g><g><rect fill="#ffffff" stroke="none" x="464" y="226" width="144" height="92" transform="matrix(1 0 0 1 -214 -102)"/></g><g><path fill="none" stroke="#000000" paint-order="fill stroke markers" d=" M 250 124 L 394 124 L 394 216 L 250 216 L 250 124 Z Z" stroke-miterlimit="10" stroke-dasharray=""/></g><g><path fill="none" stroke="#000000" paint-order="fill stroke markers" d=" M 250 150 L 394 150" stroke-miterlimit="10" stroke-dasharray=""/></g><g><path fill="none" stroke="#000000" paint-order="fill stroke markers" d=" M 250 160 L 394 160" stroke-miterlimit="10" stroke-dasharray=""/></g><g><g><path fill="none" stroke="none"/><text fill="#000000" stroke="none" font-family="Lato" font-size="14px" font-style="italic" font-weight="bold" text-decoration="undefined" x="536.5" y="240" text-anchor="middle" dominant-baseline="central" transform="matrix(1 0 0 1 -214 -102)">Door</text></g></g><g><g><path fill="none" stroke="none"/><text fill="#000000" stroke="none" font-family="Lato" font-size="14px" font-style="italic" font-weight="normal" text-decoration="undefined" x="469" y="274" text-anchor="start" dominant-baseline="central" transform="matrix(1 0 0 1 -214 -102)">+unlock()</text></g></g><g><g><path fill="none" stroke="none"/><text fill="#000000" stroke="none" font-family="Lato" font-size="14px" font-style="italic" font-weight="normal" text-decoration="undefined" x="469" y="290" text-anchor="start" dominant-baseline="central" transform="matrix(1 0 0 1 -214 -102)">+lock()</text></g></g><g><g><path fill="none" stroke="none"/><text fill="#000000" stroke="none" font-family="Lato" font-size="14px" font-style="italic" font-weight="normal" text-decoration="undefined" x="469" y="306" text-anchor="start" dominant-baseline="central" transform="matrix(1 0 0 1 -214 -102)">+is_open()</text></g></g><g><path fill="none" stroke="#000000" paint-order="fill stroke markers" d=" M 163 42 L 249 42" stroke-miterlimit="10" stroke-dasharray=""/></g><g><path fill="none" stroke="#000000" paint-order="fill stroke markers" d=" M 238.83732514237585 46.209517756016 L 249 42 L 238.83732514237585 37.790482243984" stroke-miterlimit="10" stroke-dasharray=""/></g><g><path fill="none" stroke="#000000" paint-order="fill stroke markers" d=" M 322 123 L 322 75" stroke-miterlimit="10" stroke-dasharray=""/></g><g><path fill="#FFFFFF" stroke="none" paint-order="stroke fill markers" d=" M 330.419035512032 95.32534971524831 L 322 75 L 313.580964487968 95.32534971524831"/></g><g><path fill="none" stroke="#000000" paint-order="fill stroke markers" d=" M 330.419035512032 95.32534971524831 L 322 75 L 313.580964487968 95.32534971524831 L 330.419035512032 95.32534971524831" stroke-miterlimit="10" stroke-dasharray=""/></g><g><rect fill="#ffffff" stroke="none" x="464" y="368" width="144" height="108" transform="matrix(1 0 0 1 -214 -102)"/></g><g><path fill="none" stroke="#000000" paint-order="fill stroke markers" d=" M 250 266 L 394 266 L 394 374 L 250 374 L 250 266 Z Z" stroke-miterlimit="10" stroke-dasharray=""/></g><g><path fill="none" stroke="#000000" paint-order="fill stroke markers" d=" M 250 292 L 394 292" stroke-miterlimit="10" stroke-dasharray=""/></g><g><path fill="none" stroke="#000000" paint-order="fill stroke markers" d=" M 250 302 L 394 302" stroke-miterlimit="10" stroke-dasharray=""/></g><g><g><path fill="none" stroke="none"/><text fill="#000000" stroke="none" font-family="Lato" font-size="14px" font-style="normal" font-weight="bold" text-decoration="undefined" x="536.5" y="382" text-anchor="middle" dominant-baseline="central" transform="matrix(1 0 0 1 -214 -102)">TimedDoor</text></g></g><g><g><path fill="none" stroke="none"/><text fill="#000000" stroke="none" font-family="Lato" font-size="14px" font-style="normal" font-weight="normal" text-decoration="undefined" x="469" y="416" text-anchor="start" dominant-baseline="central" transform="matrix(1 0 0 1 -214 -102)">+unlock()</text></g></g><g><g><path fill="none" stroke="none"/><text fill="#000000" stroke="none" font-family="Lato" font-size="14px" font-style="normal" font-weight="normal" text-decoration="undefined" x="469" y="432" text-anchor="start" dominant-baseline="central" transform="matrix(1 0 0 1 -214 -102)">+lock()</text></g></g><g><g><path fill="none" stroke="none"/><text fill="#000000" stroke="none" font-family="Lato" font-size="14px" font-style="normal" font-weight="normal" text-decoration="undefined" x="469" y="448" text-anchor="start" dominant-baseline="central" transform="matrix(1 0 0 1 -214 -102)">+is_door_open()</text></g></g><g><g><path fill="none" stroke="none"/><text fill="#000000" stroke="none" font-family="Lato" font-size="14px" font-style="normal" font-weight="normal" text-decoration="undefined" x="469" y="464" text-anchor="start" dominant-baseline="central" transform="matrix(1 0 0 1 -214 -102)">+timeout()</text></g></g><g><path fill="none" stroke="#000000" paint-order="fill stroke markers" d=" M 322 265 L 322 217" stroke-miterlimit="10" stroke-dasharray=""/></g><g><path fill="#FFFFFF" stroke="none" paint-order="stroke fill markers" d=" M 330.419035512032 237.3253497152483 L 322 217 L 313.580964487968 237.3253497152483"/></g><g><path fill="none" stroke="#000000" paint-order="fill stroke markers" d=" M 330.419035512032 237.3253497152483 L 322 217 L 313.580964487968 237.3253497152483 L 330.419035512032 237.3253497152483" stroke-miterlimit="10" stroke-dasharray=""/></g><g><rect fill="#ffffff" stroke="none" x="696" y="240" width="128" height="64" transform="matrix(1 0 0 1 -214 -102)"/></g><g><path fill="none" stroke="#000000" paint-order="fill stroke markers" d=" M 482 138 L 610 138 L 610 202 L 482 202 L 482 138 Z Z" stroke-miterlimit="10" stroke-dasharray=""/></g><g><path fill="none" stroke="#000000" paint-order="fill stroke markers" d=" M 482 164 L 610 164" stroke-miterlimit="10" stroke-dasharray=""/></g><g><path fill="none" stroke="#000000" paint-order="fill stroke markers" d=" M 482 174 L 610 174" stroke-miterlimit="10" stroke-dasharray=""/></g><g><g><path fill="none" stroke="none"/><text fill="#000000" stroke="none" font-family="Lato" font-size="14px" font-style="normal" font-weight="bold" text-decoration="undefined" x="760.5" y="254" text-anchor="middle" dominant-baseline="central" transform="matrix(1 0 0 1 -214 -102)">DoorUser</text></g></g><g><path fill="none" stroke="#000000" paint-order="fill stroke markers" d=" M 481 170 L 395 170" stroke-miterlimit="10" stroke-dasharray=""/></g><g><path fill="none" stroke="#000000" paint-order="fill stroke markers" d=" M 405.1626748576241 165.790482243984 L 395 170 L 405.1626748576241 174.209517756016" stroke-miterlimit="10" stroke-dasharray=""/></g></g></svg>