<svg version="1.1" xmlns="http://www.w3.org/2000/svg" xmlns:xlink="http://www.w3.org/1999/xlink" width="446" height="66"><defs/><g><g><rect fill="#ffffff" stroke="none" x="440" y="160" width="136" height="46" transform="matrix(1 0 0 1 -430 -150)"/></g><g><path fill="none" stroke="#000000" paint-order="fill stroke markers" d=" M 10 10 L 146 10 L 146 56 L 10 56 L 10 10 Z Z" stroke-miterlimit="10" stroke-dasharray=""/></g><g><path fill="none" stroke="#000000" paint-order="fill stroke markers" d=" M 10 36 L 146 36" stroke-miterlimit="10" stroke-dasharray=""/></g><g><path fill="none" stroke="#000000" paint-order="fill stroke markers" d=" M 10 46 L 146 46" stroke-miterlimit="10" stroke-dasharray=""/></g><g><g><path fill="none" stroke="none"/><text fill="#000000" stroke="none" font-family="Lato" font-size="14px" font-style="normal" font-weight="bold" text-decoration="undefined" x="508.5" y="174" text-anchor="middle" dominant-baseline="central" transform="matrix(1 0 0 1 -430 -150)">Client</text></g></g><g><rect fill="#ffffff" stroke="none" x="689" y="160" width="176" height="46" transform="matrix(1 0 0 1 -430 -150)"/></g><g><path fill="none" stroke="#000000" paint-order="fill stroke markers" d=" M 259 10 L 435 10 L 435 56 L 259 56 L 259 10 Z Z" stroke-miterlimit="10" stroke-dasharray=""/></g><g><path fill="none" stroke="#000000" paint-order="fill stroke markers" d=" M 259 36 L 435 36" stroke-miterlimit="10" stroke-dasharray=""/></g><g><path fill="none" stroke="#000000" paint-order="fill stroke markers" d=" M 259 46 L 435 46" stroke-miterlimit="10" stroke-dasharray=""/></g><g><g><path fill="none" stroke="none"/><text fill="#000000" stroke="none" font-family="Lato" font-size="14px" font-style="normal" font-weight="bold" text-decoration="undefined" x="777.5" y="174" text-anchor="middle" dominant-baseline="central" transform="matrix(1 0 0 1 -430 -150)">Service</text></g></g><g><path fill="none" stroke="#000000" paint-order="fill stroke markers" d=" M 147 33 L 258 33" stroke-miterlimit="10" stroke-dasharray=""/></g><g><path fill="none" stroke="#000000" paint-order="fill stroke markers" d=" M 247.8373251423759 37.209517756016 L 258 33 L 247.8373251423758 28.790482243984002" stroke-miterlimit="10" stroke-dasharray=""/></g></g></svg>