<svg version="1.1" xmlns="http://www.w3.org/2000/svg" xmlns:xlink="http://www.w3.org/1999/xlink" width="446" height="178"><defs/><g><g><rect fill="#ffffff" stroke="none" x="489" y="399" width="136" height="46" transform="matrix(1 0 0 1 -479 -389)"/></g><g><path fill="none" stroke="#000000" paint-order="fill stroke markers" d=" M 10 10 L 146 10 L 146 56 L 10 56 L 10 10 Z Z" stroke-miterlimit="10" stroke-dasharray=""/></g><g><path fill="none" stroke="#000000" paint-order="fill stroke markers" d=" M 10 36 L 146 36" stroke-miterlimit="10" stroke-dasharray=""/></g><g><path fill="none" stroke="#000000" paint-order="fill stroke markers" d=" M 10 46 L 146 46" stroke-miterlimit="10" stroke-dasharray=""/></g><g><g><path fill="none" stroke="none"/><text fill="#000000" stroke="none" font-family="Lato" font-size="14px" font-style="normal" font-weight="bold" text-decoration="undefined" x="557.5" y="413" text-anchor="middle" dominant-baseline="central" transform="matrix(1 0 0 1 -479 -389)">Client</text></g></g><g><rect fill="#ffffff" stroke="none" x="738" y="399" width="176" height="46" transform="matrix(1 0 0 1 -479 -389)"/></g><g><path fill="none" stroke="#000000" paint-order="fill stroke markers" d=" M 259 10 L 435 10 L 435 56 L 259 56 L 259 10 Z Z" stroke-miterlimit="10" stroke-dasharray=""/></g><g><path fill="none" stroke="#000000" paint-order="fill stroke markers" d=" M 259 36 L 435 36" stroke-miterlimit="10" stroke-dasharray=""/></g><g><path fill="none" stroke="#000000" paint-order="fill stroke markers" d=" M 259 46 L 435 46" stroke-miterlimit="10" stroke-dasharray=""/></g><g><g><path fill="none" stroke="none"/><text fill="#000000" stroke="none" font-family="Lato" font-size="14px" font-style="italic" font-weight="bold" text-decoration="undefined" x="826.5" y="413" text-anchor="middle" dominant-baseline="central" transform="matrix(1 0 0 1 -479 -389)">InterfaceForClient</text></g></g><g><path fill="none" stroke="#000000" paint-order="fill stroke markers" d=" M 147 33 L 258 33" stroke-miterlimit="10" stroke-dasharray=""/></g><g><path fill="none" stroke="#000000" paint-order="fill stroke markers" d=" M 247.8373251423759 37.209517756016 L 258 33 L 247.8373251423758 28.790482243984002" stroke-miterlimit="10" stroke-dasharray=""/></g><g><rect fill="#ffffff" stroke="none" x="737" y="511" width="176" height="46" transform="matrix(1 0 0 1 -479 -389)"/></g><g><path fill="none" stroke="#000000" paint-order="fill stroke markers" d=" M 258 122 L 434 122 L 434 168 L 258 168 L 258 122 Z Z" stroke-miterlimit="10" stroke-dasharray=""/></g><g><path fill="none" stroke="#000000" paint-order="fill stroke markers" d=" M 258 148 L 434 148" stroke-miterlimit="10" stroke-dasharray=""/></g><g><path fill="none" stroke="#000000" paint-order="fill stroke markers" d=" M 258 158 L 434 158" stroke-miterlimit="10" stroke-dasharray=""/></g><g><g><path fill="none" stroke="none"/><text fill="#000000" stroke="none" font-family="Lato" font-size="14px" font-style="normal" font-weight="bold" text-decoration="undefined" x="825.5" y="525" text-anchor="middle" dominant-baseline="central" transform="matrix(1 0 0 1 -479 -389)">Service</text></g></g><g><path fill="none" stroke="#000000" paint-order="fill stroke markers" d=" M 346 121 L 347 57" stroke-miterlimit="10" stroke-dasharray=""/></g><g><path fill="#FFFFFF" stroke="none" paint-order="stroke fill markers" d=" M 355.100463157008 77.45440042245082 L 347 57 L 338.26444718525227 77.19133767289213"/></g><g><path fill="none" stroke="#000000" paint-order="fill stroke markers" d=" M 355.100463157008 77.45440042245082 L 347 57 L 338.26444718525227 77.19133767289213 L 355.100463157008 77.45440042245082" stroke-miterlimit="10" stroke-dasharray=""/></g></g></svg>