<svg version="1.1" xmlns="http://www.w3.org/2000/svg" xmlns:xlink="http://www.w3.org/1999/xlink" width="797" height="320"><defs/><g><g><rect fill="#ffffff" stroke="none" x="248" y="128" width="152" height="64" transform="matrix(1 0 0 1 -238 -102)"/></g><g><path fill="none" stroke="#000000" paint-order="fill stroke markers" d=" M 10 26 L 162 26 L 162 90 L 10 90 L 10 26 Z Z" stroke-miterlimit="10" stroke-dasharray=""/></g><g><path fill="none" stroke="#000000" paint-order="fill stroke markers" d=" M 10 52 L 162 52" stroke-miterlimit="10" stroke-dasharray=""/></g><g><path fill="none" stroke="#000000" paint-order="fill stroke markers" d=" M 10 62 L 162 62" stroke-miterlimit="10" stroke-dasharray=""/></g><g><g><path fill="none" stroke="none"/><text fill="#000000" stroke="none" font-family="Lato" font-size="14px" font-style="normal" font-weight="bold" text-decoration="undefined" x="324.5" y="142" text-anchor="middle" dominant-baseline="central" transform="matrix(1 0 0 1 -238 -102)">TimerUser</text></g></g><g><rect fill="#ffffff" stroke="none" x="464" y="112" width="144" height="92" transform="matrix(1 0 0 1 -238 -102)"/></g><g><path fill="none" stroke="#000000" paint-order="fill stroke markers" d=" M 226 10 L 370 10 L 370 102 L 226 102 L 226 10 Z Z" stroke-miterlimit="10" stroke-dasharray=""/></g><g><path fill="none" stroke="#000000" paint-order="fill stroke markers" d=" M 226 36 L 370 36" stroke-miterlimit="10" stroke-dasharray=""/></g><g><path fill="none" stroke="#000000" paint-order="fill stroke markers" d=" M 226 46 L 370 46" stroke-miterlimit="10" stroke-dasharray=""/></g><g><g><path fill="none" stroke="none"/><text fill="#000000" stroke="none" font-family="Lato" font-size="14px" font-style="italic" font-weight="bold" text-decoration="undefined" x="536.5" y="126" text-anchor="middle" dominant-baseline="central" transform="matrix(1 0 0 1 -238 -102)">Timer</text></g></g><g><g><path fill="none" stroke="none"/><text fill="#000000" stroke="none" font-family="Lato" font-size="14px" font-style="normal" font-weight="normal" text-decoration="undefined" x="469" y="160" text-anchor="start" dominant-baseline="central" transform="matrix(1 0 0 1 -238 -102)">+timeout()</text></g></g><g><rect fill="#ffffff" stroke="none" x="688" y="112" width="144" height="92" transform="matrix(1 0 0 1 -238 -102)"/></g><g><path fill="none" stroke="#000000" paint-order="fill stroke markers" d=" M 450 10 L 594 10 L 594 102 L 450 102 L 450 10 Z Z" stroke-miterlimit="10" stroke-dasharray=""/></g><g><path fill="none" stroke="#000000" paint-order="fill stroke markers" d=" M 450 36 L 594 36" stroke-miterlimit="10" stroke-dasharray=""/></g><g><path fill="none" stroke="#000000" paint-order="fill stroke markers" d=" M 450 46 L 594 46" stroke-miterlimit="10" stroke-dasharray=""/></g><g><g><path fill="none" stroke="none"/><text fill="#000000" stroke="none" font-family="Lato" font-size="14px" font-style="italic" font-weight="bold" text-decoration="undefined" x="760.5" y="126" text-anchor="middle" dominant-baseline="central" transform="matrix(1 0 0 1 -238 -102)">Door</text></g></g><g><g><path fill="none" stroke="none"/><text fill="#000000" stroke="none" font-family="Lato" font-size="14px" font-style="italic" font-weight="normal" text-decoration="undefined" x="693" y="160" text-anchor="start" dominant-baseline="central" transform="matrix(1 0 0 1 -238 -102)">+unlock()</text></g></g><g><g><path fill="none" stroke="none"/><text fill="#000000" stroke="none" font-family="Lato" font-size="14px" font-style="italic" font-weight="normal" text-decoration="undefined" x="693" y="176" text-anchor="start" dominant-baseline="central" transform="matrix(1 0 0 1 -238 -102)">+lock()</text></g></g><g><g><path fill="none" stroke="none"/><text fill="#000000" stroke="none" font-family="Lato" font-size="14px" font-style="italic" font-weight="normal" text-decoration="undefined" x="693" y="192" text-anchor="start" dominant-baseline="central" transform="matrix(1 0 0 1 -238 -102)">+is_open()</text></g></g><g><path fill="none" stroke="#000000" paint-order="fill stroke markers" d=" M 163 57 L 225 57" stroke-miterlimit="10" stroke-dasharray=""/></g><g><path fill="none" stroke="#000000" paint-order="fill stroke markers" d=" M 214.83732514237585 61.209517756016 L 225 57 L 214.83732514237585 52.790482243984" stroke-miterlimit="10" stroke-dasharray=""/></g><g><rect fill="#ffffff" stroke="none" x="576" y="304" width="144" height="108" transform="matrix(1 0 0 1 -238 -102)"/></g><g><path fill="none" stroke="#000000" paint-order="fill stroke markers" d=" M 338 202 L 482 202 L 482 310 L 338 310 L 338 202 Z Z" stroke-miterlimit="10" stroke-dasharray=""/></g><g><path fill="none" stroke="#000000" paint-order="fill stroke markers" d=" M 338 228 L 482 228" stroke-miterlimit="10" stroke-dasharray=""/></g><g><path fill="none" stroke="#000000" paint-order="fill stroke markers" d=" M 338 238 L 482 238" stroke-miterlimit="10" stroke-dasharray=""/></g><g><g><path fill="none" stroke="none"/><text fill="#000000" stroke="none" font-family="Lato" font-size="14px" font-style="normal" font-weight="bold" text-decoration="undefined" x="648.5" y="318" text-anchor="middle" dominant-baseline="central" transform="matrix(1 0 0 1 -238 -102)">TimedDoor</text></g></g><g><g><path fill="none" stroke="none"/><text fill="#000000" stroke="none" font-family="Lato" font-size="14px" font-style="normal" font-weight="normal" text-decoration="undefined" x="581" y="352" text-anchor="start" dominant-baseline="central" transform="matrix(1 0 0 1 -238 -102)">+unlock()</text></g></g><g><g><path fill="none" stroke="none"/><text fill="#000000" stroke="none" font-family="Lato" font-size="14px" font-style="normal" font-weight="normal" text-decoration="undefined" x="581" y="368" text-anchor="start" dominant-baseline="central" transform="matrix(1 0 0 1 -238 -102)">+lock()</text></g></g><g><g><path fill="none" stroke="none"/><text fill="#000000" stroke="none" font-family="Lato" font-size="14px" font-style="normal" font-weight="normal" text-decoration="undefined" x="581" y="384" text-anchor="start" dominant-baseline="central" transform="matrix(1 0 0 1 -238 -102)">+is_door_open()</text></g></g><g><g><path fill="none" stroke="none"/><text fill="#000000" stroke="none" font-family="Lato" font-size="14px" font-style="normal" font-weight="normal" text-decoration="undefined" x="581" y="400" text-anchor="start" dominant-baseline="central" transform="matrix(1 0 0 1 -238 -102)">+timeout()</text></g></g><g><path fill="none" stroke="#000000" paint-order="fill stroke markers" d=" M 410 201 L 410 154 L 522 154 L 522 103" stroke-miterlimit="10" stroke-dasharray=""/></g><g><path fill="#FFFFFF" stroke="none" paint-order="stroke fill markers" d=" M 530.419035512032 123.32534971524831 L 522 103 L 513.580964487968 123.32534971524831"/></g><g><path fill="none" stroke="#000000" paint-order="fill stroke markers" d=" M 530.419035512032 123.32534971524831 L 522 103 L 513.580964487968 123.32534971524831 L 530.419035512032 123.32534971524831" stroke-miterlimit="10" stroke-dasharray=""/></g><g><rect fill="#ffffff" stroke="none" x="896" y="128" width="128" height="64" transform="matrix(1 0 0 1 -238 -102)"/></g><g><path fill="none" stroke="#000000" paint-order="fill stroke markers" d=" M 658 26 L 786 26 L 786 90 L 658 90 L 658 26 Z Z" stroke-miterlimit="10" stroke-dasharray=""/></g><g><path fill="none" stroke="#000000" paint-order="fill stroke markers" d=" M 658 52 L 786 52" stroke-miterlimit="10" stroke-dasharray=""/></g><g><path fill="none" stroke="#000000" paint-order="fill stroke markers" d=" M 658 62 L 786 62" stroke-miterlimit="10" stroke-dasharray=""/></g><g><g><path fill="none" stroke="none"/><text fill="#000000" stroke="none" font-family="Lato" font-size="14px" font-style="normal" font-weight="bold" text-decoration="undefined" x="960.5" y="142" text-anchor="middle" dominant-baseline="central" transform="matrix(1 0 0 1 -238 -102)">DoorUser</text></g></g><g><path fill="none" stroke="#000000" paint-order="fill stroke markers" d=" M 657 57 L 595 57" stroke-miterlimit="10" stroke-dasharray=""/></g><g><path fill="none" stroke="#000000" paint-order="fill stroke markers" d=" M 605.1626748576241 52.790482243984 L 595 57 L 605.1626748576241 61.209517756016" stroke-miterlimit="10" stroke-dasharray=""/></g><g><path fill="none" stroke="#000000" paint-order="fill stroke markers" d=" M 410 201 L 410 154 L 298 154 L 298 103" stroke-miterlimit="10" stroke-dasharray=""/></g><g><path fill="#FFFFFF" stroke="none" paint-order="stroke fill markers" d=" M 306.419035512032 123.32534971524831 L 298 103 L 289.580964487968 123.32534971524831"/></g><g><path fill="none" stroke="#000000" paint-order="fill stroke markers" d=" M 306.419035512032 123.32534971524831 L 298 103 L 289.580964487968 123.32534971524831 L 306.419035512032 123.32534971524831" stroke-miterlimit="10" stroke-dasharray=""/></g></g></svg>